<svg xmlns="http://www.w3.org/2000/svg" viewBox="0 0 32 32" fill="none">
  <rect width="32" height="32" rx="8" fill="url(#gradient)"/>
  <path d="M16 8C11.58 8 8 11.58 8 16C8 20.42 11.58 24 16 24C20.42 24 24 20.42 24 16C24 11.58 20.42 8 16 8ZM16 22C12.69 22 10 19.31 10 16C10 12.69 12.69 10 16 10C19.31 10 22 12.69 22 16C22 19.31 19.31 22 16 22Z" fill="white"/>
  <circle cx="16" cy="16" r="3" fill="white"/>
  <circle cx="12" cy="12" r="1.5" fill="white" opacity="0.7"/>
  <circle cx="20" cy="13" r="1" fill="white" opacity="0.5"/>
  <circle cx="13" cy="19" r="1" fill="white" opacity="0.5"/>
  <defs>
    <linearGradient id="gradient" x1="0" y1="0" x2="32" y2="32">
      <stop offset="0%" stop-color="#6366F1"/>
      <stop offset="100%" stop-color="#8B5CF6"/>
    </linearGradient>
  </defs>
</svg>
